<?xml version="1.0" encoding="utf-8"?>
<svg version="1.1" id="Layer_1" xmlns="http://www.w3.org/2000/svg" xmlns:xlink="http://www.w3.org/1999/xlink" 
     x="0px" y="0px" viewBox="0 0 24 24" style="enable-background:new 0 0 24 24" xml:space="preserve">
<style type="text/css">
    .ethernet-base{fill:#ffffff;opacity:1;}
    .download-indicator{fill:#00ff00;opacity:0;}
    .upload-indicator{fill:#ff6600;opacity:0;}
</style>

<!-- Base ethernet icon -->
<g class="ethernet-base">
    <!-- Ethernet port -->
    <rect x="4" y="8" width="16" height="8" rx="1" ry="1" stroke="#ffffff" stroke-width="1" fill="none"/>
    
    <!-- Connector -->
    <rect x="6" y="10" width="12" height="4" rx="0.5" ry="0.5" fill="#ffffff"/>
    
    <!-- Pins -->
    <rect x="7" y="11" width="1" height="2" fill="#000000"/>
    <rect x="9" y="11" width="1" height="2" fill="#000000"/>
    <rect x="11" y="11" width="1" height="2" fill="#000000"/>
    <rect x="13" y="11" width="1" height="2" fill="#000000"/>
    <rect x="15" y="11" width="1" height="2" fill="#000000"/>
    <rect x="17" y="11" width="1" height="2" fill="#000000"/>
    
    <!-- Cable -->
    <rect x="11" y="16" width="2" height="4" fill="#ffffff"/>
</g>

<!-- Download indicator (green arrow down) -->
<g class="download-indicator">
    <path d="M8 4 L8 7 L6 7 L10 11 L14 7 L12 7 L12 4 Z" fill="#00ff00"/>
</g>

<!-- Upload indicator (orange arrow up) -->
<g class="upload-indicator">
    <path d="M16 20 L16 17 L18 17 L14 13 L10 17 L12 17 L12 20 Z" fill="#ff6600"/>
</g>

</svg> 